<?xml version="1.0"?><svg version="1.2" baseProfile="tiny-ps" viewBox="0 0 300 300" xmlns="http://www.w3.org/2000/svg" xmlns:xlink="http://www.w3.org/1999/xlink"><title>I-Bookin</title><g><g fill="#fff" transform="matrix(.1 0 0 -.1 0 300)"><path d="M0 1500V0h3000v3000H0V1500z"/></g><g fill="#c3d1ff" transform="matrix(.1 0 0 -.1 0 300)"><path d="M0 1500V0h3000v3000H0V1500zm1892 773 18-16v-290l-17-19-16-18H661l-15 15c-22 23-28 69-24 193l3 110 19 21 19 21h1210l19-17zm455-5 23-21v-277l-20-20-20-20h-299l-20 26-21 27v258l25 24 24 25h285l23-22zm-1345-465 18-16v-296l-22-15-22-16H672l-23 19-24 19-3 112c-4 126 2 172 24 195l15 15h322l19-17zm581-5 11-16-48-53-48-53-28-56c-15-30-33-72-39-92l-13-38-21-15-21-15h-222l-22 16-22 15v292l17 19 16 18 215-2 215-3 10-17zm582-53c28-8 71-28 98-44l47-31 30-46 29-47 12-53 12-53-13-16-12-15h-197l-11 41-11 41-24 24-24 24h-121l-32-29-32-28-3-64-3-64 17-50 18-50 90-1c50 0 96-4 103-8l12-7v-115l-12-12-12-12h-143l-5-72-5-73-18-35c-9-19-27-45-38-57l-20-23h471l11-14 12-14-3-89-3-88h-770l-3 92-3 92 38 24c80 51 103 96 103 199v58h-145l-13 9-13 8 3 64 3 64 58 3 57 3v8c0 5-7 28-15 51l-15 43v130l12 39 12 40 44 49 43 48 62 31 62 30 60 9c68 10 127 6 200-14zm-763-402 18-16v-237l-20-20-20-20H672l-23 19-24 19v239l14 16 13 17h731l19-17zM983 949c12-7 25-17 29-23l8-11V681l-26-20-27-21H672l-23 19-24 19v244l24 19 23 19h289l22-11zm423-13 14-20V681l-27-21-28-22-111 4-111 3-17 14-17 14 3 131 3 130 25 14 25 13 113-3 114-3 14-19z"/></g><g fill="#6fa0ff" transform="matrix(.1 0 0 -.1 0 300)"><path d="M0 1500V0h3000v3000H0V1500zm1892 772 23-23v-281l-28-24-28-24H669l-24 25-25 24v272l11 20c6 11 20 24 32 29l22 9 592-2 592-2 23-23zm433 14 34-14 11-39 12-39-4-112-3-111-23-23-23-23h-301l-19 24-19 23v137l1 136 13 17c7 10 24 22 37 27l24 10h113l113 1 34-14zm-1318-479 18-18 3-137 3-137-21-28-21-27H665l-11 8c-6 4-16 17-23 29l-11 22v252l11 20c6 11 20 24 32 29l22 9 152-2 152-2 18-18zm564 13 19-11v-45l-36-35c-48-47-90-114-114-185l-20-59-17-12-17-13h-245l-20 26-21 27v258l11 20c6 11 20 24 32 29l22 9h193l193 1 20-10zm625-81 59-22 50-51 50-51 18-52 18-51-3-34-3-33h-219l-9 37-9 38-30 25-30 25h-93l-32-20-32-19-11-43-12-42 6-41c4-22 12-57 18-77l11-38h183l12-12 12-12v-112l-12-12-12-12h-133l-7-67-7-67-18-41c-10-22-28-49-41-60l-22-20 243-5 244-5V665h-780l-3 87-3 87 55 41 56 40 16 33 17 32 5 73 5 72h-162l-11 19c-5 11-10 40-10 65v45l16 15 15 16h98l-16 43-16 42-1 75-1 75 28 57 28 58 37 30c46 38 111 70 177 87l50 13 76-5 76-4 59-22zm-790-393 14-20v-239l-17-19-16-18H661l-20 26-21 27v218l25 25 25 25 361-3 361-3 14-19zM998 944l22-15V671l-22-15-22-16H661l-20 26-21 27v221l22 23 21 23h313l22-16zm400 0 22-15V671l-22-15-22-16h-235l-20 26-21 27v214l21 27 20 26h235l22-16z"/></g><g fill="#198bff" transform="matrix(.1 0 0 -.1 0 300)"><path d="M0 1500V0h3000v3000H0V1500zm1895 775 25-24v-282l-25-24-24-25H666l-23 22-23 21v296l26 20 27 21h1198l24-25zm456-4 29-29v-253l-12-22c-6-12-18-27-27-34l-16-12-141-1h-141l-27 21-26 20v280l11 20c6 11 20 24 32 29l22 9h133l134 1 29-29zm-1346-466 25-24v-281l-20-20c-29-29-53-32-210-28l-142 3-19 24-19 23v282l22 23 21 23h318l24-25zm573 13c7-7 12-22 12-33v-22l-26-24c-15-13-44-51-65-83l-39-59-17-54-17-53-19-18-19-17h-250l-19 24-19 23v282l22 23 21 23h423l12-12zm577-63 60-15 55-38 54-37 33-63 33-64v-84l-12-12-12-12h-185l-15 22c-9 12-16 30-16 40 0 9-11 30-24 45l-24 28h-62l-62-1-29-32-29-32 1-68 1-67 12-35 13-35 99-5 99-5v-150l-76-3-76-3-5-67-5-67-26-52c-15-28-32-55-39-60l-13-8 240-5 240-5 3-99 3-99-13-9-13-8h-741l-12 12-12 12v176l48 30 48 29 21 38 21 38 7 47 7 48-6 25-6 25h-158l-6 16c-3 9-6 39-6 68v52l12 12 12 12h96v8c0 4-7 29-15 56l-15 49v103l16 47 16 46 38 44 39 43 59 32c72 38 117 50 202 51l66 1 59-15zm-750-410 25-24v-223l-30-29-29-30-356 3-357 3-19 24-19 23v238l20 20 20 20h721l24-25zm-396-411 21-27V693l-21-27-20-26H660l-20 20-20 20v240l20 20 20 20h329l20-26zm387 18c6-4 16-17 23-29l11-22V693l-21-27-20-26h-249l-20 20-20 20v240l20 20 20 20h245l11-8z"/></g></g></svg>